<svg xmlns="http://www.w3.org/2000/svg" viewBox="0 0 128.39 128.39"><path fill="#b48988" d="M38.55,87.7a36.72,36.72,0,0,1-3.95-5,2.58,2.58,0,0,0-3.4-.84L30,82.54a38.72,38.72,0,0,0,7.5,9.79l1.06-1.13A2.54,2.54,0,0,0,38.55,87.7ZM32.67,44.89l-1.54-1A38.93,38.93,0,0,0,27,53.1c-.23.78-.44,1.56-.61,2.34l1.57.41A2.56,2.56,0,0,0,31,54.14a36.83,36.83,0,0,1,2.52-5.86A2.56,2.56,0,0,0,32.67,44.89ZM74.76,100a2.56,2.56,0,0,0-3-1.74,35.6,35.6,0,0,1-6.17.82,2.55,2.55,0,0,0-2.47,2.46l0,1.32a38.48,38.48,0,0,0,12.08-1.61ZM53.24,27.1l.39,1.32a2.54,2.54,0,0,0,3,1.73,31.1,31.1,0,0,1,5.94-.71A2.57,2.57,0,0,0,65.09,27l.07-1.45A38.31,38.31,0,0,0,53.24,27.1Zm47.07,46a2.55,2.55,0,0,0-3,1.73,34.64,34.64,0,0,1-2.42,5.73A2.55,2.55,0,0,0,95.75,84l1.1.69a38.2,38.2,0,0,0,4.21-9.34c.19-.63.36-1.25.51-1.88Z"/><path fill="#b48988" d="M13.27,64.19a50.76,50.76,0,0,0,101.51,1.22v-.09H102.6a.28.28,0,0,1,0,.09A38.56,38.56,0,1,1,75.31,27.29V14.69a50.76,50.76,0,0,0-62,49.5Z"/><path fill="#fff" d="M36.58,64.2a27.46,27.46,0,0,0,54.26,6v0a27.21,27.21,0,0,0,.65-6V37.13a38.36,38.36,0,0,1,11,24.29h12.22a50.78,50.78,0,0,0-23.24-39.9,49.77,49.77,0,0,0-12.27-5.77V41.34A27.2,27.2,0,0,0,64,36.74,27.49,27.49,0,0,0,36.58,64.2Zm12.18,0a15.27,15.27,0,0,1,30.46-1.61,14.08,14.08,0,0,1,.09,1.61,14.35,14.35,0,0,1-.09,1.61A15.27,15.27,0,0,1,48.76,64.2Z"/></svg>